<?xml version="1.0" encoding="UTF-8" standalone="no"?>
<!DOCTYPE svg PUBLIC "-//W3C//DTD SVG 1.1//EN"
 "http://www.w3.org/Graphics/SVG/1.1/DTD/svg11.dtd">
<!-- Generated by graphviz version 2.42.4 (0)
 -->
<!-- Title: HyMedia_ERD_Simple Pages: 1 -->
<svg width="801pt" height="686pt"
 viewBox="0.00 0.00 801.43 685.60" xmlns="http://www.w3.org/2000/svg" xmlns:xlink="http://www.w3.org/1999/xlink">
<g id="graph0" class="graph" transform="scale(1 1) rotate(0) translate(10.8 674.8)">
<title>HyMedia_ERD_Simple</title>
<polygon fill="white" stroke="transparent" points="-10.8,10.8 -10.8,-674.8 790.63,-674.8 790.63,10.8 -10.8,10.8"/>
<!-- User -->
<g id="node1" class="node">
<title>User</title>
<polygon fill="none" stroke="black" points="177.83,-578.5 177.83,-663.5 267.83,-663.5 267.83,-578.5 177.83,-578.5"/>
<text text-anchor="middle" x="222.83" y="-648.9" font-family="Arial" font-size="12.00">USER</text>
<polyline fill="none" stroke="black" points="177.83,-640.5 267.83,-640.5 "/>
<text text-anchor="start" x="186.83" y="-625.9" font-family="Arial" font-size="12.00">PK user_id</text>
<text text-anchor="start" x="186.83" y="-612.9" font-family="Arial" font-size="12.00">username</text>
<text text-anchor="start" x="186.83" y="-599.9" font-family="Arial" font-size="12.00">email</text>
<text text-anchor="start" x="186.83" y="-586.9" font-family="Arial" font-size="12.00">account_type</text>
</g>
<!-- Asset -->
<g id="node2" class="node">
<title>Asset</title>
<polygon fill="none" stroke="black" points="156.33,-418.5 156.33,-516.5 289.33,-516.5 289.33,-418.5 156.33,-418.5"/>
<text text-anchor="middle" x="222.83" y="-501.9" font-family="Arial" font-size="12.00">ASSET (Cosmos DB)</text>
<polyline fill="none" stroke="black" points="156.33,-493.5 289.33,-493.5 "/>
<text text-anchor="start" x="165.33" y="-478.9" font-family="Arial" font-size="12.00">PK asset_id</text>
<text text-anchor="start" x="165.33" y="-465.9" font-family="Arial" font-size="12.00">FK owner_id</text>
<text text-anchor="start" x="165.33" y="-452.9" font-family="Arial" font-size="12.00">media_type</text>
<text text-anchor="start" x="165.33" y="-439.9" font-family="Arial" font-size="12.00">caption</text>
<text text-anchor="start" x="165.33" y="-426.9" font-family="Arial" font-size="12.00">visibility</text>
</g>
<!-- User&#45;&gt;Asset -->
<!-- User&#45;&gt;Asset -->
<g id="edge6" class="edge">
<title>User&#45;&gt;Asset</title>
<path fill="none" stroke="#555555" d="M222.83,-578.2C222.83,-561.35 222.83,-541.66 222.83,-523.66"/>
<polygon fill="#555555" stroke="#555555" points="225.28,-523.59 222.83,-516.59 220.38,-523.59 225.28,-523.59"/>
<text text-anchor="middle" x="244.33" y="-545" font-family="Arial" font-size="10.00">owns 1:N</text>
</g>
<!-- Comment -->
<g id="node3" class="node">
<title>Comment</title>
<polygon fill="none" stroke="black" points="48.33,-271.5 48.33,-356.5 151.33,-356.5 151.33,-271.5 48.33,-271.5"/>
<text text-anchor="middle" x="99.83" y="-341.9" font-family="Arial" font-size="12.00">COMMENT</text>
<polyline fill="none" stroke="black" points="48.33,-333.5 151.33,-333.5 "/>
<text text-anchor="start" x="57.33" y="-318.9" font-family="Arial" font-size="12.00">PK comment_id</text>
<text text-anchor="start" x="57.33" y="-305.9" font-family="Arial" font-size="12.00">FK asset_id</text>
<text text-anchor="start" x="57.33" y="-292.9" font-family="Arial" font-size="12.00">FK user_id</text>
<text text-anchor="start" x="57.33" y="-279.9" font-family="Arial" font-size="12.00">comment_text</text>
</g>
<!-- User&#45;&gt;Comment -->
<g id="edge7" class="edge">
<title>User&#45;&gt;Comment</title>
<path fill="none" stroke="#555555" d="M177.77,-597.8C147.91,-580.37 111.17,-553.03 93.83,-517 70.63,-468.78 77.2,-406.33 86.31,-363.71"/>
<polygon fill="#555555" stroke="#555555" points="88.72,-364.14 87.85,-356.78 83.94,-363.08 88.72,-364.14"/>
<text text-anchor="middle" x="116.83" y="-465" font-family="Arial" font-size="10.00">writes 1:N</text>
</g>
<!-- Like -->
<g id="node4" class="node">
<title>Like</title>
<polygon fill="none" stroke="black" points="116.83,-137.5 116.83,-209.5 198.83,-209.5 198.83,-137.5 116.83,-137.5"/>
<text text-anchor="middle" x="157.83" y="-194.9" font-family="Arial" font-size="12.00">LIKE</text>
<polyline fill="none" stroke="black" points="116.83,-186.5 198.83,-186.5 "/>
<text text-anchor="start" x="125.83" y="-171.9" font-family="Arial" font-size="12.00">PK like_id</text>
<text text-anchor="start" x="125.83" y="-158.9" font-family="Arial" font-size="12.00">FK asset_id</text>
<text text-anchor="start" x="125.83" y="-145.9" font-family="Arial" font-size="12.00">FK user_id</text>
</g>
<!-- User&#45;&gt;Like -->
<g id="edge9" class="edge">
<title>User&#45;&gt;Like</title>
<path fill="none" stroke="#555555" d="M177.77,-598.93C154.58,-587.04 126.49,-570.98 103.83,-553 41.24,-503.33 36.78,-471.5 21.83,-393 14.53,-354.67 -28.35,-380.23 31.83,-271 49.44,-239.03 82.57,-214.3 110.44,-197.89"/>
<polygon fill="#555555" stroke="#555555" points="111.82,-199.92 116.66,-194.31 109.37,-195.67 111.82,-199.92"/>
<text text-anchor="middle" x="47.83" y="-385" font-family="Arial" font-size="10.00">creates 1:N</text>
</g>
<!-- Subscription -->
<g id="node5" class="node">
<title>Subscription</title>
<polygon fill="none" stroke="black" points="490.33,-425 490.33,-510 611.33,-510 611.33,-425 490.33,-425"/>
<text text-anchor="middle" x="550.83" y="-495.4" font-family="Arial" font-size="12.00">SUBSCRIPTION</text>
<polyline fill="none" stroke="black" points="490.33,-487 611.33,-487 "/>
<text text-anchor="start" x="499.33" y="-472.4" font-family="Arial" font-size="12.00">PK subscription_id</text>
<text text-anchor="start" x="499.33" y="-459.4" font-family="Arial" font-size="12.00">creator_user_id</text>
<text text-anchor="start" x="499.33" y="-446.4" font-family="Arial" font-size="12.00">subscriber_user_id</text>
<text text-anchor="start" x="499.33" y="-433.4" font-family="Arial" font-size="12.00">plan_name</text>
</g>
<!-- User&#45;&gt;Subscription -->
<g id="edge11" class="edge">
<title>User&#45;&gt;Subscription</title>
<path fill="none" stroke="#555555" d="M268.09,-599.09C323.91,-573.31 419.27,-529.27 483.64,-499.54"/>
<polygon fill="#555555" stroke="#555555" points="484.83,-501.68 490.16,-496.52 482.78,-497.24 484.83,-501.68"/>
<text text-anchor="middle" x="435.33" y="-545" font-family="Arial" font-size="10.00">creator/subscriber 1:N</text>
</g>
<!-- AssetAccess -->
<g id="node7" class="node">
<title>AssetAccess</title>
<polygon fill="none" stroke="black" points="434.83,-0.5 434.83,-85.5 558.83,-85.5 558.83,-0.5 434.83,-0.5"/>
<text text-anchor="middle" x="496.83" y="-70.9" font-family="Arial" font-size="12.00">ASSET_ACCESS</text>
<polyline fill="none" stroke="black" points="434.83,-62.5 558.83,-62.5 "/>
<text text-anchor="start" x="443.83" y="-47.9" font-family="Arial" font-size="12.00">PK access_id</text>
<text text-anchor="start" x="443.83" y="-34.9" font-family="Arial" font-size="12.00">FK asset_id</text>
<text text-anchor="start" x="443.83" y="-21.9" font-family="Arial" font-size="12.00">FK granted_user_id</text>
<text text-anchor="start" x="443.83" y="-8.9" font-family="Arial" font-size="12.00">access_type</text>
</g>
<!-- User&#45;&gt;AssetAccess -->
<g id="edge14" class="edge">
<title>User&#45;&gt;AssetAccess</title>
<path fill="none" stroke="#555555" d="M268.09,-616.19C392.04,-604.5 727.83,-564.04 727.83,-468.5 727.83,-468.5 727.83,-468.5 727.83,-172.5 727.83,-97.63 634.01,-66 565.95,-52.9"/>
<polygon fill="#555555" stroke="#555555" points="566.37,-50.49 559.04,-51.62 565.47,-55.31 566.37,-50.49"/>
<text text-anchor="middle" x="753.83" y="-311.5" font-family="Arial" font-size="10.00">granted 1:N</text>
</g>
<!-- Asset&#45;&gt;Comment -->
<!-- Asset&#45;&gt;Comment -->
<g id="edge8" class="edge">
<title>Asset&#45;&gt;Comment</title>
<path fill="none" stroke="#555555" d="M183.42,-418.29C176.55,-409.87 169.48,-401.18 162.83,-393 154.78,-383.08 146.16,-372.44 137.97,-362.3"/>
<polygon fill="#555555" stroke="#555555" points="139.77,-360.63 133.47,-356.73 135.96,-363.71 139.77,-360.63"/>
<text text-anchor="middle" x="180.33" y="-385" font-family="Arial" font-size="10.00">has 1:N</text>
</g>
<!-- Asset&#45;&gt;Like -->
<g id="edge10" class="edge">
<title>Asset&#45;&gt;Like</title>
<path fill="none" stroke="#555555" d="M212.1,-418.28C199.61,-362.16 179.17,-270.37 167.27,-216.88"/>
<polygon fill="#555555" stroke="#555555" points="169.63,-216.21 165.71,-209.91 164.84,-217.28 169.63,-216.21"/>
<text text-anchor="middle" x="217.83" y="-311.5" font-family="Arial" font-size="10.00">gets 1:N</text>
</g>
<!-- Asset&#45;&gt;AssetAccess -->
<g id="edge13" class="edge">
<title>Asset&#45;&gt;AssetAccess</title>
<path fill="none" stroke="#555555" d="M289.33,-455.09C345.42,-441.73 422.91,-413.76 463.83,-357 520.41,-278.53 514.51,-158.89 505.5,-92.56"/>
<polygon fill="#555555" stroke="#555555" points="507.91,-92.11 504.5,-85.52 503.05,-92.8 507.91,-92.11"/>
<text text-anchor="middle" x="527.33" y="-238" font-family="Arial" font-size="10.00">ACL 1:N</text>
</g>
<!-- Tag -->
<g id="node8" class="node">
<title>Tag</title>
<polygon fill="none" stroke="black" points="447.83,-352 285.83,-352 285.83,-276 447.83,-276 447.83,-352"/>
<text text-anchor="middle" x="366.83" y="-337.4" font-family="Arial" font-size="12.00">{EMBEDDED METADATA|</text>
<text text-anchor="start" x="294.83" y="-324.4" font-family="Arial" font-size="12.00">tags</text>
<text text-anchor="start" x="294.83" y="-297.4" font-family="Arial" font-size="12.00">tagged_users</text>
<text text-anchor="middle" x="366.83" y="-284.4" font-family="Arial" font-size="12.00">}</text>
</g>
<!-- Asset&#45;&gt;Tag -->
<g id="edge15" class="edge">
<title>Asset&#45;&gt;Tag</title>
<path fill="none" stroke="#555555" stroke-dasharray="5,2" d="M268.79,-418.15C287.3,-398.68 308.46,-376.41 326.37,-357.56"/>
<polygon fill="#555555" stroke="#555555" points="328.29,-359.11 331.34,-352.34 324.74,-355.73 328.29,-359.11"/>
<text text-anchor="middle" x="322.83" y="-385" font-family="Arial" font-size="10.00">embedded</text>
</g>
<!-- Comment&#45;&gt;Like -->
<!-- Like&#45;&gt;AssetAccess -->
<!-- Payment -->
<g id="node6" class="node">
<title>Payment</title>
<polygon fill="none" stroke="black" points="545.83,-271.5 545.83,-356.5 663.83,-356.5 663.83,-271.5 545.83,-271.5"/>
<text text-anchor="middle" x="604.83" y="-341.9" font-family="Arial" font-size="12.00">PAYMENT</text>
<polyline fill="none" stroke="black" points="545.83,-333.5 663.83,-333.5 "/>
<text text-anchor="start" x="554.83" y="-318.9" font-family="Arial" font-size="12.00">PK payment_id</text>
<text text-anchor="start" x="554.83" y="-305.9" font-family="Arial" font-size="12.00">FK subscription_id</text>
<text text-anchor="start" x="554.83" y="-292.9" font-family="Arial" font-size="12.00">amount</text>
<text text-anchor="start" x="554.83" y="-279.9" font-family="Arial" font-size="12.00">paid_at</text>
</g>
<!-- Subscription&#45;&gt;Payment -->
<!-- Subscription&#45;&gt;Payment -->
<g id="edge12" class="edge">
<title>Subscription&#45;&gt;Payment</title>
<path fill="none" stroke="#555555" d="M565.73,-424.7C572.49,-405.74 580.52,-383.2 587.54,-363.5"/>
<polygon fill="#555555" stroke="#555555" points="589.94,-364.08 589.98,-356.66 585.32,-362.43 589.94,-364.08"/>
<text text-anchor="middle" x="596.33" y="-385" font-family="Arial" font-size="10.00">has 1:N</text>
</g>
</g>
</svg>
