<?xml version="1.0" encoding="UTF-8" standalone="no"?>
<!DOCTYPE svg PUBLIC "-//W3C//DTD SVG 1.1//EN"
 "http://www.w3.org/Graphics/SVG/1.1/DTD/svg11.dtd">
<!-- Generated by graphviz version 2.42.4 (0)
 -->
<!-- Title: HyMedia_ERD_SVG Pages: 1 -->
<svg width="1008pt" height="584pt"
 viewBox="0.00 0.00 1008.00 584.00" xmlns="http://www.w3.org/2000/svg" xmlns:xlink="http://www.w3.org/1999/xlink">
<g id="graph0" class="graph" transform="scale(1 1) rotate(0) translate(4 580)">
<title>HyMedia_ERD_SVG</title>
<polygon fill="white" stroke="transparent" points="-4,4 -4,-580 1004,-580 1004,4 -4,4"/>
<!-- User -->
<g id="node1" class="node">
<title>User</title>
<polygon fill="none" stroke="black" points="0,-153.5 0,-255.5 177,-255.5 177,-153.5 0,-153.5"/>
<text text-anchor="middle" x="22" y="-201.7" font-family="Arial" font-size="11.00">USER</text>
<polyline fill="none" stroke="black" points="44,-153.5 44,-255.5 "/>
<text text-anchor="start" x="50" y="-243.7" font-family="Arial" font-size="11.00">PK user_id : UUID</text>
<text text-anchor="start" x="50" y="-231.7" font-family="Arial" font-size="11.00">username : varchar</text>
<text text-anchor="start" x="50" y="-219.7" font-family="Arial" font-size="11.00">email : varchar</text>
<text text-anchor="start" x="50" y="-207.7" font-family="Arial" font-size="11.00">password_hash : varchar</text>
<text text-anchor="start" x="50" y="-195.7" font-family="Arial" font-size="11.00">display_name : varchar</text>
<text text-anchor="start" x="50" y="-183.7" font-family="Arial" font-size="11.00">created_at : datetime</text>
<text text-anchor="start" x="50" y="-171.7" font-family="Arial" font-size="11.00">account_type : enum</text>
<text text-anchor="start" x="50" y="-159.7" font-family="Arial" font-size="11.00">status : enum</text>
</g>
<!-- Asset -->
<g id="node2" class="node">
<title>Asset</title>
<polygon fill="none" stroke="black" points="302,-310.5 302,-460.5 595,-460.5 595,-310.5 302,-310.5"/>
<text text-anchor="middle" x="386.5" y="-382.7" font-family="Arial" font-size="11.00">ASSET (Cosmos DB document)</text>
<polyline fill="none" stroke="black" points="471,-310.5 471,-460.5 "/>
<text text-anchor="start" x="477" y="-448.7" font-family="Arial" font-size="11.00">PK asset_id : UUID</text>
<text text-anchor="start" x="477" y="-436.7" font-family="Arial" font-size="11.00">FK owner_id : UUID</text>
<text text-anchor="start" x="477" y="-424.7" font-family="Arial" font-size="11.00">caption : text</text>
<text text-anchor="start" x="477" y="-412.7" font-family="Arial" font-size="11.00">media_type : enum</text>
<text text-anchor="start" x="477" y="-400.7" font-family="Arial" font-size="11.00">blob_url : string</text>
<text text-anchor="start" x="477" y="-388.7" font-family="Arial" font-size="11.00">thumbnail_url : string</text>
<text text-anchor="start" x="477" y="-376.7" font-family="Arial" font-size="11.00">visibility : enum</text>
<text text-anchor="start" x="477" y="-364.7" font-family="Arial" font-size="11.00">sensitive_flag : boolean</text>
<text text-anchor="start" x="477" y="-352.7" font-family="Arial" font-size="11.00">location_text : string</text>
<text text-anchor="start" x="477" y="-340.7" font-family="Arial" font-size="11.00">created_at : datetime</text>
<text text-anchor="start" x="477" y="-328.7" font-family="Arial" font-size="11.00">like_count : int</text>
<text text-anchor="start" x="477" y="-316.7" font-family="Arial" font-size="11.00">comment_count : int</text>
</g>
<!-- User&#45;&gt;Asset -->
<g id="edge1" class="edge">
<title>User&#45;&gt;Asset</title>
<path fill="none" stroke="#444444" d="M177.15,-241C239.55,-241 312,-241 312,-241 312,-241 312,-275.18 312,-310.29"/>
<text text-anchor="middle" x="239.5" y="-341.5" font-family="Arial" font-size="10.00">owns</text>
<text text-anchor="middle" x="308" y="-302.29" font-family="Arial" font-size="10.00">N</text>
<text text-anchor="middle" x="180.15" y="-233" font-family="Arial" font-size="10.00">1</text>
</g>
<!-- Comment -->
<g id="node3" class="node">
<title>Comment</title>
<polygon fill="none" stroke="black" points="761.5,-132.5 761.5,-210.5 957.5,-210.5 957.5,-132.5 761.5,-132.5"/>
<text text-anchor="middle" x="796.5" y="-168.7" font-family="Arial" font-size="11.00">COMMENT</text>
<polyline fill="none" stroke="black" points="831.5,-132.5 831.5,-210.5 "/>
<text text-anchor="start" x="837.5" y="-198.7" font-family="Arial" font-size="11.00">PK comment_id : UUID</text>
<text text-anchor="start" x="837.5" y="-186.7" font-family="Arial" font-size="11.00">FK asset_id : UUID</text>
<text text-anchor="start" x="837.5" y="-174.7" font-family="Arial" font-size="11.00">FK user_id : UUID</text>
<text text-anchor="start" x="837.5" y="-162.7" font-family="Arial" font-size="11.00">comment_text : text</text>
<text text-anchor="start" x="837.5" y="-150.7" font-family="Arial" font-size="11.00">created_at : datetime</text>
<text text-anchor="start" x="837.5" y="-138.7" font-family="Arial" font-size="11.00">status : enum</text>
</g>
<!-- User&#45;&gt;Comment -->
<g id="edge2" class="edge">
<title>User&#45;&gt;Comment</title>
<path fill="none" stroke="#444444" d="M177.32,-172.33C322.64,-172.33 610.13,-172.33 761.31,-172.33"/>
<text text-anchor="middle" x="448.5" y="-166.5" font-family="Arial" font-size="10.00">writes</text>
<text text-anchor="middle" x="757.31" y="-164.33" font-family="Arial" font-size="10.00">N</text>
<text text-anchor="middle" x="180.32" y="-164.33" font-family="Arial" font-size="10.00">1</text>
</g>
<!-- Like -->
<g id="node4" class="node">
<title>Like</title>
<polygon fill="none" stroke="black" points="784,-521.5 784,-575.5 935,-575.5 935,-521.5 784,-521.5"/>
<text text-anchor="middle" x="802.5" y="-545.7" font-family="Arial" font-size="11.00">LIKE</text>
<polyline fill="none" stroke="black" points="821,-521.5 821,-575.5 "/>
<text text-anchor="start" x="827" y="-563.7" font-family="Arial" font-size="11.00">PK like_id : UUID</text>
<text text-anchor="start" x="827" y="-551.7" font-family="Arial" font-size="11.00">FK asset_id : UUID</text>
<text text-anchor="start" x="827" y="-539.7" font-family="Arial" font-size="11.00">FK user_id : UUID</text>
<text text-anchor="start" x="827" y="-527.7" font-family="Arial" font-size="11.00">created_at : datetime</text>
</g>
<!-- User&#45;&gt;Like -->
<g id="edge4" class="edge">
<title>User&#45;&gt;Like</title>
<path fill="none" stroke="#444444" d="M89,-255.85C89,-353.8 89,-557.67 89,-557.67 89,-557.67 589.73,-557.67 783.87,-557.67"/>
<text text-anchor="middle" x="448.5" y="-552.5" font-family="Arial" font-size="10.00">creates</text>
<text text-anchor="middle" x="779.87" y="-549.67" font-family="Arial" font-size="10.00">N</text>
<text text-anchor="middle" x="86" y="-258.85" font-family="Arial" font-size="10.00">1</text>
</g>
<!-- Subscription -->
<g id="node5" class="node">
<title>Subscription</title>
<polygon fill="none" stroke="black" points="321.5,-0.5 321.5,-90.5 575.5,-90.5 575.5,-0.5 321.5,-0.5"/>
<text text-anchor="middle" x="370" y="-42.7" font-family="Arial" font-size="11.00">SUBSCRIPTION</text>
<polyline fill="none" stroke="black" points="418.5,-0.5 418.5,-90.5 "/>
<text text-anchor="start" x="424.5" y="-78.7" font-family="Arial" font-size="11.00">PK subscription_id : UUID</text>
<text text-anchor="start" x="424.5" y="-66.7" font-family="Arial" font-size="11.00">FK creator_user_id : UUID</text>
<text text-anchor="start" x="424.5" y="-54.7" font-family="Arial" font-size="11.00">FK subscriber_user_id : UUID</text>
<text text-anchor="start" x="424.5" y="-42.7" font-family="Arial" font-size="11.00">plan_name : varchar</text>
<text text-anchor="start" x="424.5" y="-30.7" font-family="Arial" font-size="11.00">status : enum</text>
<text text-anchor="start" x="424.5" y="-18.7" font-family="Arial" font-size="11.00">start_date : datetime</text>
<text text-anchor="start" x="424.5" y="-6.7" font-family="Arial" font-size="11.00">end_date : datetime</text>
</g>
<!-- User&#45;&gt;Subscription -->
<g id="edge6" class="edge">
<title>User&#45;&gt;Subscription</title>
<path fill="none" stroke="#444444" d="M59,-153.19C59,-101.81 59,-30.33 59,-30.33 59,-30.33 207.6,-30.33 321.23,-30.33"/>
<text text-anchor="middle" x="239.5" y="-56.5" font-family="Arial" font-size="10.00">as creator</text>
<text text-anchor="middle" x="317.23" y="-22.33" font-family="Arial" font-size="10.00">N</text>
<text text-anchor="middle" x="56" y="-145.19" font-family="Arial" font-size="10.00">1</text>
</g>
<!-- User&#45;&gt;Subscription -->
<g id="edge7" class="edge">
<title>User&#45;&gt;Subscription</title>
<path fill="none" stroke="#444444" d="M118,-153.38C118,-112.04 118,-60.67 118,-60.67 118,-60.67 228.09,-60.67 321.19,-60.67"/>
<text text-anchor="middle" x="239.5" y="-123.5" font-family="Arial" font-size="10.00">as subscriber</text>
<text text-anchor="middle" x="317.19" y="-52.67" font-family="Arial" font-size="10.00">N</text>
<text text-anchor="middle" x="115" y="-145.38" font-family="Arial" font-size="10.00">1</text>
</g>
<!-- AssetAccess -->
<g id="node7" class="node">
<title>AssetAccess</title>
<polygon fill="none" stroke="black" points="736,-262.5 736,-328.5 983,-328.5 983,-262.5 736,-262.5"/>
<text text-anchor="middle" x="787" y="-292.7" font-family="Arial" font-size="11.00">ASSET_ACCESS</text>
<polyline fill="none" stroke="black" points="838,-262.5 838,-328.5 "/>
<text text-anchor="start" x="844" y="-316.7" font-family="Arial" font-size="11.00">PK access_id : UUID</text>
<text text-anchor="start" x="844" y="-304.7" font-family="Arial" font-size="11.00">FK asset_id : UUID</text>
<text text-anchor="start" x="844" y="-292.7" font-family="Arial" font-size="11.00">FK granted_user_id : UUID</text>
<text text-anchor="start" x="844" y="-280.7" font-family="Arial" font-size="11.00">granted_at : datetime</text>
<text text-anchor="start" x="844" y="-268.7" font-family="Arial" font-size="11.00">access_type : enum</text>
</g>
<!-- User&#45;&gt;AssetAccess -->
<g id="edge10" class="edge">
<title>User&#45;&gt;AssetAccess</title>
<path fill="none" stroke="#444444" d="M177.31,-226C357.05,-226 747,-226 747,-226 747,-226 747,-244.48 747,-262.38"/>
<text text-anchor="middle" x="448.5" y="-249.5" font-family="Arial" font-size="10.00">granted to</text>
<text text-anchor="middle" x="743" y="-254.38" font-family="Arial" font-size="10.00">N</text>
<text text-anchor="middle" x="180.31" y="-218" font-family="Arial" font-size="10.00">1</text>
</g>
<!-- Asset&#45;&gt;Comment -->
<g id="edge3" class="edge">
<title>Asset&#45;&gt;Comment</title>
<path fill="none" stroke="#444444" d="M586,-310.28C586,-255.8 586,-191.67 586,-191.67 586,-191.67 682.74,-191.67 761.15,-191.67"/>
<text text-anchor="middle" x="657" y="-309.5" font-family="Arial" font-size="10.00">has</text>
<text text-anchor="middle" x="757.15" y="-183.67" font-family="Arial" font-size="10.00">N</text>
<text text-anchor="middle" x="583" y="-302.28" font-family="Arial" font-size="10.00">1</text>
</g>
<!-- Asset&#45;&gt;Like -->
<g id="edge5" class="edge">
<title>Asset&#45;&gt;Like</title>
<path fill="none" stroke="#444444" d="M449,-460.61C449,-499.66 449,-539.33 449,-539.33 449,-539.33 665.12,-539.33 783.73,-539.33"/>
<text text-anchor="middle" x="657" y="-517.5" font-family="Arial" font-size="10.00">receives</text>
<text text-anchor="middle" x="779.73" y="-531.33" font-family="Arial" font-size="10.00">N</text>
<text text-anchor="middle" x="446" y="-463.61" font-family="Arial" font-size="10.00">1</text>
</g>
<!-- Asset&#45;&gt;AssetAccess -->
<g id="edge9" class="edge">
<title>Asset&#45;&gt;AssetAccess</title>
<path fill="none" stroke="#444444" d="M595.14,-319.5C641.13,-319.5 691.42,-319.5 735.67,-319.5"/>
<text text-anchor="middle" x="657" y="-361.5" font-family="Arial" font-size="10.00">visibility ACL</text>
<text text-anchor="middle" x="731.67" y="-311.5" font-family="Arial" font-size="10.00">N</text>
<text text-anchor="middle" x="598.14" y="-311.5" font-family="Arial" font-size="10.00">1</text>
</g>
<!-- Tag -->
<g id="node8" class="node">
<title>Tag</title>
<polygon fill="none" stroke="black" points="754.5,-446.5 754.5,-482.5 964.5,-482.5 964.5,-446.5 754.5,-446.5"/>
<text text-anchor="middle" x="816.5" y="-461.7" font-family="Arial" font-size="11.00">TAG (embedded array)</text>
<polyline fill="none" stroke="black" points="878.5,-446.5 878.5,-482.5 "/>
<text text-anchor="start" x="884.5" y="-461.7" font-family="Arial" font-size="11.00">tag_text : string</text>
</g>
<!-- Asset&#45;&gt;Tag -->
<g id="edge11" class="edge">
<title>Asset&#45;&gt;Tag</title>
<path fill="none" stroke="#444444" stroke-dasharray="5,2" d="M595.14,-453.5C647.7,-453.5 705.87,-453.5 754.24,-453.5"/>
<text text-anchor="middle" x="657" y="-465.5" font-family="Arial" font-size="10.00">contains</text>
<text text-anchor="middle" x="750.24" y="-445.5" font-family="Arial" font-size="10.00">N</text>
<text text-anchor="middle" x="598.14" y="-445.5" font-family="Arial" font-size="10.00">1</text>
</g>
<!-- TaggedUser -->
<g id="node9" class="node">
<title>TaggedUser</title>
<polygon fill="none" stroke="black" points="719,-373.5 719,-409.5 1000,-409.5 1000,-373.5 719,-373.5"/>
<text text-anchor="middle" x="811.5" y="-388.7" font-family="Arial" font-size="11.00">TAGGED_USER (embedded array)</text>
<polyline fill="none" stroke="black" points="904,-373.5 904,-409.5 "/>
<text text-anchor="start" x="910" y="-394.7" font-family="Arial" font-size="11.00">user_id : UUID</text>
<text text-anchor="start" x="910" y="-382.7" font-family="Arial" font-size="11.00">username : string</text>
</g>
<!-- Asset&#45;&gt;TaggedUser -->
<g id="edge12" class="edge">
<title>Asset&#45;&gt;TaggedUser</title>
<path fill="none" stroke="#444444" stroke-dasharray="5,2" d="M595.14,-391.5C635.37,-391.5 678.88,-391.5 718.77,-391.5"/>
<text text-anchor="middle" x="657" y="-413.5" font-family="Arial" font-size="10.00">mentions</text>
<text text-anchor="middle" x="714.77" y="-383.5" font-family="Arial" font-size="10.00">N</text>
<text text-anchor="middle" x="598.14" y="-383.5" font-family="Arial" font-size="10.00">1</text>
</g>
<!-- Payment -->
<g id="node6" class="node">
<title>Payment</title>
<polygon fill="none" stroke="black" points="758,-0.5 758,-90.5 961,-90.5 961,-0.5 758,-0.5"/>
<text text-anchor="middle" x="790.5" y="-42.7" font-family="Arial" font-size="11.00">PAYMENT</text>
<polyline fill="none" stroke="black" points="823,-0.5 823,-90.5 "/>
<text text-anchor="start" x="829" y="-78.7" font-family="Arial" font-size="11.00">PK payment_id : UUID</text>
<text text-anchor="start" x="829" y="-66.7" font-family="Arial" font-size="11.00">FK subscription_id : UUID</text>
<text text-anchor="start" x="829" y="-54.7" font-family="Arial" font-size="11.00">amount : decimal</text>
<text text-anchor="start" x="829" y="-42.7" font-family="Arial" font-size="11.00">currency : varchar</text>
<text text-anchor="start" x="829" y="-30.7" font-family="Arial" font-size="11.00">payment_status : enum</text>
<text text-anchor="start" x="829" y="-18.7" font-family="Arial" font-size="11.00">paid_at : datetime</text>
<text text-anchor="start" x="829" y="-6.7" font-family="Arial" font-size="11.00">provider_ref : varchar</text>
</g>
<!-- Subscription&#45;&gt;Payment -->
<g id="edge8" class="edge">
<title>Subscription&#45;&gt;Payment</title>
<path fill="none" stroke="#444444" d="M575.73,-45.5C634.31,-45.5 702.88,-45.5 757.93,-45.5"/>
<text text-anchor="middle" x="657" y="-48.5" font-family="Arial" font-size="10.00">has</text>
<text text-anchor="middle" x="753.93" y="-37.5" font-family="Arial" font-size="10.00">N</text>
<text text-anchor="middle" x="578.73" y="-37.5" font-family="Arial" font-size="10.00">1</text>
</g>
</g>
</svg>
