<svg xmlns="http://www.w3.org/2000/svg" width="1380" height="1040" viewBox="0 0 1380 1040">
<defs>
  <marker id="arrow" markerWidth="10" markerHeight="8" refX="9" refY="4" orient="auto" markerUnits="strokeWidth">
    <path d="M0,0 L10,4 L0,8 z" fill="#1f2937"/>
  </marker>
  <style>
    .small { font: 12px Arial, Helvetica, sans-serif; fill: #374151; }
  </style>
</defs>
<rect x="0" y="0" width="1380" height="1040" fill="white"/>
<text x="690.0" y="34" font-family="Arial, Helvetica, sans-serif" font-size="24" text-anchor="middle" font-weight="bold" fill="#111827">
Cloud-Native Media Platform — UML Sequence Diagram
</text>
<text x="690.0" y="56" font-family="Arial, Helvetica, sans-serif" font-size="13" text-anchor="middle" fill="#4b5563">
Upload flow and asset retrieval flow using API Management, Logic Apps, Blob Storage, Azure SQL, Cosmos DB, Queue, and Azure Functions
</text>

<rect x="32" y="70" width="116" height="36" rx="10" fill="#f3f4f6" stroke="#9ca3af"/>
<text x="90" y="85" font-family="Arial, Helvetica, sans-serif" font-size="13" text-anchor="middle" font-weight="bold" fill="#111827">User</text>
<text x="90" y="100" font-family="Arial, Helvetica, sans-serif" font-size="13" text-anchor="middle" font-weight="bold" fill="#111827">Browser</text>
<line x1="90" y1="106" x2="90" y2="980" stroke="#9ca3af" stroke-width="2" stroke-dasharray="8,8"/>
<rect x="202" y="70" width="116" height="36" rx="10" fill="#f3f4f6" stroke="#9ca3af"/>
<text x="260" y="85" font-family="Arial, Helvetica, sans-serif" font-size="13" text-anchor="middle" font-weight="bold" fill="#111827">API</text>
<text x="260" y="100" font-family="Arial, Helvetica, sans-serif" font-size="13" text-anchor="middle" font-weight="bold" fill="#111827">Management</text>
<line x1="260" y1="106" x2="260" y2="980" stroke="#9ca3af" stroke-width="2" stroke-dasharray="8,8"/>
<rect x="372" y="70" width="116" height="36" rx="10" fill="#f3f4f6" stroke="#9ca3af"/>
<text x="430" y="93" font-family="Arial, Helvetica, sans-serif" font-size="13" text-anchor="middle" font-weight="bold" fill="#111827">Logic App</text>
<line x1="430" y1="106" x2="430" y2="980" stroke="#9ca3af" stroke-width="2" stroke-dasharray="8,8"/>
<rect x="542" y="70" width="116" height="36" rx="10" fill="#f3f4f6" stroke="#9ca3af"/>
<text x="600" y="93" font-family="Arial, Helvetica, sans-serif" font-size="13" text-anchor="middle" font-weight="bold" fill="#111827">Azure SQL</text>
<line x1="600" y1="106" x2="600" y2="980" stroke="#9ca3af" stroke-width="2" stroke-dasharray="8,8"/>
<rect x="712" y="70" width="116" height="36" rx="10" fill="#f3f4f6" stroke="#9ca3af"/>
<text x="770" y="93" font-family="Arial, Helvetica, sans-serif" font-size="13" text-anchor="middle" font-weight="bold" fill="#111827">Cosmos DB</text>
<line x1="770" y1="106" x2="770" y2="980" stroke="#9ca3af" stroke-width="2" stroke-dasharray="8,8"/>
<rect x="882" y="70" width="116" height="36" rx="10" fill="#f3f4f6" stroke="#9ca3af"/>
<text x="940" y="93" font-family="Arial, Helvetica, sans-serif" font-size="13" text-anchor="middle" font-weight="bold" fill="#111827">Blob Storage</text>
<line x1="940" y1="106" x2="940" y2="980" stroke="#9ca3af" stroke-width="2" stroke-dasharray="8,8"/>
<rect x="1052" y="70" width="116" height="36" rx="10" fill="#f3f4f6" stroke="#9ca3af"/>
<text x="1110" y="93" font-family="Arial, Helvetica, sans-serif" font-size="13" text-anchor="middle" font-weight="bold" fill="#111827">Queue</text>
<line x1="1110" y1="106" x2="1110" y2="980" stroke="#9ca3af" stroke-width="2" stroke-dasharray="8,8"/>
<rect x="1222" y="70" width="116" height="36" rx="10" fill="#f3f4f6" stroke="#9ca3af"/>
<text x="1280" y="85" font-family="Arial, Helvetica, sans-serif" font-size="13" text-anchor="middle" font-weight="bold" fill="#111827">Function</text>
<text x="1280" y="100" font-family="Arial, Helvetica, sans-serif" font-size="13" text-anchor="middle" font-weight="bold" fill="#111827">Worker</text>
<line x1="1280" y1="106" x2="1280" y2="980" stroke="#9ca3af" stroke-width="2" stroke-dasharray="8,8"/>
<rect x="254" y="120" width="12" height="70" fill="#dbeafe" stroke="#2563eb" rx="4"/>
<rect x="424" y="158" width="12" height="260" fill="#dbeafe" stroke="#2563eb" rx="4"/>
<rect x="594" y="196" width="12" height="108" fill="#dbeafe" stroke="#2563eb" rx="4"/>
<rect x="764" y="310" width="12" height="32" fill="#dbeafe" stroke="#2563eb" rx="4"/>
<rect x="934" y="348" width="12" height="108" fill="#dbeafe" stroke="#2563eb" rx="4"/>
<rect x="1104" y="462" width="12" height="70" fill="#dbeafe" stroke="#2563eb" rx="4"/>
<rect x="1274" y="500" width="12" height="146" fill="#dbeafe" stroke="#2563eb" rx="4"/>
<rect x="594" y="614" width="12" height="32" fill="#dbeafe" stroke="#2563eb" rx="4"/>
<rect x="254" y="652" width="12" height="70" fill="#dbeafe" stroke="#2563eb" rx="4"/>
<rect x="424" y="690" width="12" height="184" fill="#dbeafe" stroke="#2563eb" rx="4"/>
<rect x="594" y="728" width="12" height="32" fill="#dbeafe" stroke="#2563eb" rx="4"/>
<rect x="764" y="766" width="12" height="32" fill="#dbeafe" stroke="#2563eb" rx="4"/>
<rect x="934" y="804" width="12" height="32" fill="#dbeafe" stroke="#2563eb" rx="4"/>
<line x1="40" y1="684" x2="1340" y2="684" stroke="#d1d5db" stroke-width="2"/>
<text x="92" y="676" font-family="Arial, Helvetica, sans-serif" font-size="14" text-anchor="start" font-weight="bold" fill="#2563eb">Create / Upload Flow</text>
<text x="92" y="710" font-family="Arial, Helvetica, sans-serif" font-size="14" text-anchor="start" font-weight="bold" fill="#059669">Read / View Flow</text>
<line x1="90" y1="130" x2="260" y2="130" stroke="#1f2937" stroke-width="2" marker-end="url(#arrow)"/>
<text x="175.0" y="122" font-family="Arial, Helvetica, sans-serif" font-size="13" text-anchor="middle" font-weight="normal" fill="#111827">POST /assets</text>
<circle cx="34" cy="126" r="11" fill="#eef2ff" stroke="#6366f1"/>
<text x="34" y="130" font-family="Arial, Helvetica, sans-serif" font-size="11" text-anchor="middle" font-weight="bold" fill="#4338ca">1</text>
<line x1="260" y1="168" x2="430" y2="168" stroke="#1f2937" stroke-width="2" marker-end="url(#arrow)"/>
<text x="345.0" y="160" font-family="Arial, Helvetica, sans-serif" font-size="13" text-anchor="middle" font-weight="normal" fill="#111827">Forward request + auth context</text>
<circle cx="34" cy="164" r="11" fill="#eef2ff" stroke="#6366f1"/>
<text x="34" y="168" font-family="Arial, Helvetica, sans-serif" font-size="11" text-anchor="middle" font-weight="bold" fill="#4338ca">2</text>
<line x1="430" y1="206" x2="600" y2="206" stroke="#1f2937" stroke-width="2" marker-end="url(#arrow)"/>
<text x="515.0" y="198" font-family="Arial, Helvetica, sans-serif" font-size="13" text-anchor="middle" font-weight="normal" fill="#111827">Validate session / entitlement</text>
<circle cx="34" cy="202" r="11" fill="#eef2ff" stroke="#6366f1"/>
<text x="34" y="206" font-family="Arial, Helvetica, sans-serif" font-size="11" text-anchor="middle" font-weight="bold" fill="#4338ca">3</text>
<line x1="600" y1="244" x2="430" y2="244" stroke="#1f2937" stroke-width="2" marker-end="url(#arrow)"/>
<text x="515.0" y="236" font-family="Arial, Helvetica, sans-serif" font-size="13" text-anchor="middle" font-weight="normal" fill="#111827">Session valid</text>
<circle cx="34" cy="240" r="11" fill="#eef2ff" stroke="#6366f1"/>
<text x="34" y="244" font-family="Arial, Helvetica, sans-serif" font-size="11" text-anchor="middle" font-weight="bold" fill="#4338ca">4</text>
<line x1="430" y1="282" x2="600" y2="282" stroke="#1f2937" stroke-width="2" marker-end="url(#arrow)"/>
<text x="515.0" y="274" font-family="Arial, Helvetica, sans-serif" font-size="13" text-anchor="middle" font-weight="normal" fill="#111827">Create asset record (PendingUpload)</text>
<circle cx="34" cy="278" r="11" fill="#eef2ff" stroke="#6366f1"/>
<text x="34" y="282" font-family="Arial, Helvetica, sans-serif" font-size="11" text-anchor="middle" font-weight="bold" fill="#4338ca">5</text>
<line x1="430" y1="320" x2="770" y2="320" stroke="#1f2937" stroke-width="2" marker-end="url(#arrow)"/>
<text x="600.0" y="312" font-family="Arial, Helvetica, sans-serif" font-size="13" text-anchor="middle" font-weight="normal" fill="#111827">Create feed/search metadata</text>
<circle cx="34" cy="316" r="11" fill="#eef2ff" stroke="#6366f1"/>
<text x="34" y="320" font-family="Arial, Helvetica, sans-serif" font-size="11" text-anchor="middle" font-weight="bold" fill="#4338ca">6</text>
<line x1="430" y1="358" x2="940" y2="358" stroke="#1f2937" stroke-width="2" marker-end="url(#arrow)"/>
<text x="685.0" y="350" font-family="Arial, Helvetica, sans-serif" font-size="13" text-anchor="middle" font-weight="normal" fill="#111827">Generate SAS upload URL</text>
<circle cx="34" cy="354" r="11" fill="#eef2ff" stroke="#6366f1"/>
<text x="34" y="358" font-family="Arial, Helvetica, sans-serif" font-size="11" text-anchor="middle" font-weight="bold" fill="#4338ca">7</text>
<line x1="430" y1="396" x2="90" y2="396" stroke="#1f2937" stroke-width="2" marker-end="url(#arrow)"/>
<text x="260.0" y="388" font-family="Arial, Helvetica, sans-serif" font-size="13" text-anchor="middle" font-weight="normal" fill="#111827">Return assetId + SAS URL</text>
<circle cx="34" cy="392" r="11" fill="#eef2ff" stroke="#6366f1"/>
<text x="34" y="396" font-family="Arial, Helvetica, sans-serif" font-size="11" text-anchor="middle" font-weight="bold" fill="#4338ca">8</text>
<line x1="90" y1="434" x2="940" y2="434" stroke="#1f2937" stroke-width="2" marker-end="url(#arrow)"/>
<text x="515.0" y="426" font-family="Arial, Helvetica, sans-serif" font-size="13" text-anchor="middle" font-weight="normal" fill="#111827">Upload media directly</text>
<circle cx="34" cy="430" r="11" fill="#eef2ff" stroke="#6366f1"/>
<text x="34" y="434" font-family="Arial, Helvetica, sans-serif" font-size="11" text-anchor="middle" font-weight="bold" fill="#4338ca">9</text>
<line x1="940" y1="472" x2="1110" y2="472" stroke="#1f2937" stroke-width="2" marker-end="url(#arrow)"/>
<text x="1025.0" y="464" font-family="Arial, Helvetica, sans-serif" font-size="13" text-anchor="middle" font-weight="normal" fill="#111827">Blob created event</text>
<circle cx="34" cy="468" r="11" fill="#eef2ff" stroke="#6366f1"/>
<text x="34" y="472" font-family="Arial, Helvetica, sans-serif" font-size="11" text-anchor="middle" font-weight="bold" fill="#4338ca">10</text>
<line x1="1110" y1="510" x2="1280" y2="510" stroke="#1f2937" stroke-width="2" marker-end="url(#arrow)"/>
<text x="1195.0" y="502" font-family="Arial, Helvetica, sans-serif" font-size="13" text-anchor="middle" font-weight="normal" fill="#111827">Trigger processing job</text>
<circle cx="34" cy="506" r="11" fill="#eef2ff" stroke="#6366f1"/>
<text x="34" y="510" font-family="Arial, Helvetica, sans-serif" font-size="11" text-anchor="middle" font-weight="bold" fill="#4338ca">11</text>
<line x1="1280" y1="548" x2="940" y2="548" stroke="#1f2937" stroke-width="2" marker-end="url(#arrow)"/>
<text x="1110.0" y="540" font-family="Arial, Helvetica, sans-serif" font-size="13" text-anchor="middle" font-weight="normal" fill="#111827">Read media + create derivatives</text>
<circle cx="34" cy="544" r="11" fill="#eef2ff" stroke="#6366f1"/>
<text x="34" y="548" font-family="Arial, Helvetica, sans-serif" font-size="11" text-anchor="middle" font-weight="bold" fill="#4338ca">12</text>
<line x1="1280" y1="586" x2="770" y2="586" stroke="#1f2937" stroke-width="2" marker-end="url(#arrow)"/>
<text x="1025.0" y="578" font-family="Arial, Helvetica, sans-serif" font-size="13" text-anchor="middle" font-weight="normal" fill="#111827">Update searchable metadata</text>
<circle cx="34" cy="582" r="11" fill="#eef2ff" stroke="#6366f1"/>
<text x="34" y="586" font-family="Arial, Helvetica, sans-serif" font-size="11" text-anchor="middle" font-weight="bold" fill="#4338ca">13</text>
<line x1="1280" y1="624" x2="600" y2="624" stroke="#1f2937" stroke-width="2" marker-end="url(#arrow)"/>
<text x="940.0" y="616" font-family="Arial, Helvetica, sans-serif" font-size="13" text-anchor="middle" font-weight="normal" fill="#111827">Mark asset Ready</text>
<circle cx="34" cy="620" r="11" fill="#eef2ff" stroke="#6366f1"/>
<text x="34" y="624" font-family="Arial, Helvetica, sans-serif" font-size="11" text-anchor="middle" font-weight="bold" fill="#4338ca">14</text>
<line x1="90" y1="662" x2="260" y2="662" stroke="#1f2937" stroke-width="2" marker-end="url(#arrow)"/>
<text x="175.0" y="654" font-family="Arial, Helvetica, sans-serif" font-size="13" text-anchor="middle" font-weight="normal" fill="#111827">GET /assets/{id}</text>
<circle cx="34" cy="658" r="11" fill="#eef2ff" stroke="#6366f1"/>
<text x="34" y="662" font-family="Arial, Helvetica, sans-serif" font-size="11" text-anchor="middle" font-weight="bold" fill="#4338ca">15</text>
<line x1="260" y1="700" x2="430" y2="700" stroke="#1f2937" stroke-width="2" marker-end="url(#arrow)"/>
<text x="345.0" y="692" font-family="Arial, Helvetica, sans-serif" font-size="13" text-anchor="middle" font-weight="normal" fill="#111827">Fetch asset</text>
<circle cx="34" cy="696" r="11" fill="#eef2ff" stroke="#6366f1"/>
<text x="34" y="700" font-family="Arial, Helvetica, sans-serif" font-size="11" text-anchor="middle" font-weight="bold" fill="#4338ca">16</text>
<line x1="430" y1="738" x2="600" y2="738" stroke="#1f2937" stroke-width="2" marker-end="url(#arrow)"/>
<text x="515.0" y="730" font-family="Arial, Helvetica, sans-serif" font-size="13" text-anchor="middle" font-weight="normal" fill="#111827">Read core asset / ACL</text>
<circle cx="34" cy="734" r="11" fill="#eef2ff" stroke="#6366f1"/>
<text x="34" y="738" font-family="Arial, Helvetica, sans-serif" font-size="11" text-anchor="middle" font-weight="bold" fill="#4338ca">17</text>
<line x1="430" y1="776" x2="770" y2="776" stroke="#1f2937" stroke-width="2" marker-end="url(#arrow)"/>
<text x="600.0" y="768" font-family="Arial, Helvetica, sans-serif" font-size="13" text-anchor="middle" font-weight="normal" fill="#111827">Read tags / counters / feed data</text>
<circle cx="34" cy="772" r="11" fill="#eef2ff" stroke="#6366f1"/>
<text x="34" y="776" font-family="Arial, Helvetica, sans-serif" font-size="11" text-anchor="middle" font-weight="bold" fill="#4338ca">18</text>
<line x1="430" y1="814" x2="940" y2="814" stroke="#1f2937" stroke-width="2" marker-end="url(#arrow)"/>
<text x="685.0" y="806" font-family="Arial, Helvetica, sans-serif" font-size="13" text-anchor="middle" font-weight="normal" fill="#111827">Generate read URL</text>
<circle cx="34" cy="810" r="11" fill="#eef2ff" stroke="#6366f1"/>
<text x="34" y="814" font-family="Arial, Helvetica, sans-serif" font-size="11" text-anchor="middle" font-weight="bold" fill="#4338ca">19</text>
<line x1="430" y1="852" x2="90" y2="852" stroke="#1f2937" stroke-width="2" marker-end="url(#arrow)"/>
<text x="260.0" y="844" font-family="Arial, Helvetica, sans-serif" font-size="13" text-anchor="middle" font-weight="normal" fill="#111827">Return asset details</text>
<circle cx="34" cy="848" r="11" fill="#eef2ff" stroke="#6366f1"/>
<text x="34" y="852" font-family="Arial, Helvetica, sans-serif" font-size="11" text-anchor="middle" font-weight="bold" fill="#4338ca">20</text>
<rect x="40" y="976" width="520" height="28" rx="8" fill="#f9fafb" stroke="#d1d5db"/>
<text x="56" y="995" font-family="Arial, Helvetica, sans-serif" font-size="12" text-anchor="start" font-weight="normal" fill="#374151">Blue activation bars represent active processing by a service.</text>
<rect x="595" y="976" width="730" height="28" rx="8" fill="#f9fafb" stroke="#d1d5db"/>
<text x="611" y="995" font-family="Arial, Helvetica, sans-serif" font-size="12" text-anchor="start" font-weight="normal" fill="#374151">Design intent: direct-to-Blob upload reduces API load; queue + function worker enables asynchronous media processing.</text>
</svg>